<?xml version="1.0" standalone="no"?>
<!DOCTYPE svg PUBLIC "-//W3C//DTD SVG 20010904//EN"
 "http://www.w3.org/TR/2001/REC-SVG-20010904/DTD/svg10.dtd">
<svg version="1.0" xmlns="http://www.w3.org/2000/svg"
 width="200.000000pt" height="200.000000pt" viewBox="0 0 200.000000 200.000000"
 preserveAspectRatio="xMidYMid meet">

<g transform="translate(0.000000,200.000000) scale(0.100000,-0.100000)"
fill="#061934" stroke="none">
<path d="M348 1866 c-71 -73 -128 -135 -128 -139 0 -4 90 -7 200 -7 127 0 200
-4 200 -10 0 -5 -5 -10 -11 -10 -23 0 -156 -96 -214 -154 -99 -99 -162 -206
-207 -346 -20 -65 -23 -95 -23 -230 1 -162 9 -206 64 -332 47 -110 159 -248
261 -323 63 -46 171 -99 260 -127 64 -20 95 -23 220 -23 123 1 156 4 220 24
87 27 168 65 244 116 29 19 56 35 60 35 3 0 6 -31 6 -70 l0 -70 150 0 150 0 0
900 0 900 -662 -1 -663 -2 -127 -131z m742 -397 c133 -31 277 -145 337 -269
134 -278 -1 -606 -292 -712 -85 -30 -245 -30 -330 0 -289 105 -426 434 -293
709 61 126 202 241 334 272 54 12 190 13 244 0z"/>
</g>
</svg>
